<svg xmlns="http://www.w3.org/2000/svg" viewBox="0 0 64 64">
  <defs>
    <linearGradient id="g" x1="8" y1="6" x2="56" y2="60" gradientUnits="userSpaceOnUse">
      <stop stop-color="#2f9c72"/>
      <stop offset="1" stop-color="#16583f"/>
    </linearGradient>
  </defs>
  <rect x="2" y="2" width="60" height="60" rx="18" fill="url(#g)"/>
  <circle cx="32" cy="32" r="20" fill="#f5d36d" stroke="#fff1b5" stroke-width="2"/>
  <path d="M37.5 23.5c-1.3-1.2-3.2-2-5.2-2-2.8 0-4.7 1.1-4.7 3 0 4.8 11.5 2.3 11.5 10.6 0 4.1-2.8 6.7-7 7.1V46h-3v-3.9c-2.9-.5-5.4-1.8-7.1-3.7l2.6-3.2c1.8 1.8 4.2 2.9 6.7 2.9 2.2 0 3.6-.9 3.6-2.6 0-4.4-11.5-2.1-11.5-10.5 0-4 2.5-6.6 6.5-7.3V14h3v3.6c2.9.3 5.4 1.5 7.1 3.1z" fill="#173c2f"/>
</svg>

